<mxfile host="65bd71144e">
    <diagram id="dH1NZwILAHTOhozXzGht" name="Page-1">
        <mxGraphModel dx="3229" dy="1467" grid="1" gridSize="10" guides="1" tooltips="1" connect="1" arrows="1" fold="1" page="1" pageScale="1" pageWidth="827" pageHeight="1169" math="1" shadow="0">
            <root>
                <mxCell id="0"/>
                <mxCell id="1" parent="0"/>
                <mxCell id="5" value="" style="edgeStyle=none;html=1;strokeColor=default;endArrow=none;endFill=0;" edge="1" parent="1" source="3" target="4">
                    <mxGeometry relative="1" as="geometry"/>
                </mxCell>
                <mxCell id="14" value="" style="edgeStyle=none;html=1;endArrow=none;endFill=0;strokeColor=default;" edge="1" parent="1" source="3" target="12">
                    <mxGeometry relative="1" as="geometry"/>
                </mxCell>
                <mxCell id="3" value="0" style="ellipse;whiteSpace=wrap;html=1;aspect=fixed;fillColor=#60a917;fontColor=#ffffff;strokeColor=#2D7600;" vertex="1" parent="1">
                    <mxGeometry x="610" y="290" width="80" height="80" as="geometry"/>
                </mxCell>
                <mxCell id="7" value="" style="edgeStyle=none;html=1;endArrow=none;endFill=0;strokeColor=default;" edge="1" parent="1" source="4" target="6">
                    <mxGeometry relative="1" as="geometry"/>
                </mxCell>
                <mxCell id="4" value="1" style="ellipse;whiteSpace=wrap;html=1;aspect=fixed;fillColor=#60a917;fontColor=#ffffff;strokeColor=#2D7600;" vertex="1" parent="1">
                    <mxGeometry x="770" y="290" width="80" height="80" as="geometry"/>
                </mxCell>
                <mxCell id="9" value="" style="edgeStyle=none;html=1;endArrow=none;endFill=0;strokeColor=default;" edge="1" parent="1" source="6" target="8">
                    <mxGeometry relative="1" as="geometry"/>
                </mxCell>
                <mxCell id="6" value="2" style="ellipse;whiteSpace=wrap;html=1;aspect=fixed;fillColor=#60a917;fontColor=#ffffff;strokeColor=#2D7600;" vertex="1" parent="1">
                    <mxGeometry x="930" y="290" width="80" height="80" as="geometry"/>
                </mxCell>
                <mxCell id="11" value="" style="edgeStyle=none;html=1;endArrow=none;endFill=0;strokeColor=default;" edge="1" parent="1" source="8" target="10">
                    <mxGeometry relative="1" as="geometry"/>
                </mxCell>
                <mxCell id="21" value="" style="edgeStyle=none;html=1;endArrow=none;endFill=0;strokeColor=default;" edge="1" parent="1" source="8" target="19">
                    <mxGeometry relative="1" as="geometry"/>
                </mxCell>
                <mxCell id="8" value="5" style="ellipse;whiteSpace=wrap;html=1;aspect=fixed;fillColor=#60a917;fontColor=#ffffff;strokeColor=#2D7600;" vertex="1" parent="1">
                    <mxGeometry x="930" y="450" width="80" height="80" as="geometry"/>
                </mxCell>
                <mxCell id="13" value="" style="edgeStyle=none;html=1;endArrow=none;endFill=0;strokeColor=default;" edge="1" parent="1" source="10" target="12">
                    <mxGeometry relative="1" as="geometry"/>
                </mxCell>
                <mxCell id="22" value="" style="edgeStyle=none;html=1;endArrow=none;endFill=0;strokeColor=default;" edge="1" parent="1" source="10" target="17">
                    <mxGeometry relative="1" as="geometry"/>
                </mxCell>
                <mxCell id="23" value="" style="edgeStyle=none;html=1;endArrow=none;endFill=0;strokeColor=default;" edge="1" parent="1" source="10" target="4">
                    <mxGeometry relative="1" as="geometry"/>
                </mxCell>
                <mxCell id="10" value="4" style="ellipse;whiteSpace=wrap;html=1;aspect=fixed;fillColor=#60a917;fontColor=#ffffff;strokeColor=#2D7600;" vertex="1" parent="1">
                    <mxGeometry x="770" y="450" width="80" height="80" as="geometry"/>
                </mxCell>
                <mxCell id="16" value="" style="edgeStyle=none;html=1;endArrow=none;endFill=0;strokeColor=default;" edge="1" parent="1" source="12" target="15">
                    <mxGeometry relative="1" as="geometry"/>
                </mxCell>
                <mxCell id="12" value="3" style="ellipse;whiteSpace=wrap;html=1;aspect=fixed;fillColor=#60a917;fontColor=#ffffff;strokeColor=#2D7600;" vertex="1" parent="1">
                    <mxGeometry x="610" y="450" width="80" height="80" as="geometry"/>
                </mxCell>
                <mxCell id="18" value="" style="edgeStyle=none;html=1;endArrow=none;endFill=0;strokeColor=default;" edge="1" parent="1" source="15" target="17">
                    <mxGeometry relative="1" as="geometry"/>
                </mxCell>
                <mxCell id="15" value="6" style="ellipse;whiteSpace=wrap;html=1;aspect=fixed;fillColor=#60a917;fontColor=#ffffff;strokeColor=#2D7600;" vertex="1" parent="1">
                    <mxGeometry x="610" y="610" width="80" height="80" as="geometry"/>
                </mxCell>
                <mxCell id="20" value="" style="edgeStyle=none;html=1;endArrow=none;endFill=0;strokeColor=default;" edge="1" parent="1" source="17" target="19">
                    <mxGeometry relative="1" as="geometry"/>
                </mxCell>
                <mxCell id="17" value="7" style="ellipse;whiteSpace=wrap;html=1;aspect=fixed;fillColor=#60a917;fontColor=#ffffff;strokeColor=#2D7600;" vertex="1" parent="1">
                    <mxGeometry x="770" y="610" width="80" height="80" as="geometry"/>
                </mxCell>
                <mxCell id="19" value="8" style="ellipse;whiteSpace=wrap;html=1;aspect=fixed;fillColor=#60a917;fontColor=#ffffff;strokeColor=#2D7600;" vertex="1" parent="1">
                    <mxGeometry x="930" y="610" width="80" height="80" as="geometry"/>
                </mxCell>
                <mxCell id="31" value="" style="shape=image;verticalLabelPosition=bottom;labelBackgroundColor=#ffffff;verticalAlign=top;aspect=fixed;imageAspect=0;image=https://latex.codecogs.com/png.latex?%5Cdpi%7B300%7D%20%5Cbegin%7Bbmatrix%7D%200%20%26%201%20%26%200%20%26%201%20%26%200%20%26%200%20%26%200%20%26%200%20%26%200%5C%5C%201%20%26%200%20%26%201%20%26%200%20%26%201%20%26%200%20%26%200%20%26%200%20%26%200%20%5C%5C%200%20%26%201%20%26%200%20%26%200%20%26%200%20%26%201%20%26%200%20%26%200%20%26%200%20%5C%5C%201%20%26%200%20%26%200%20%26%200%20%26%201%20%26%200%20%26%201%20%26%200%20%26%200%20%5C%5C%200%20%26%201%20%26%200%20%26%201%20%26%200%20%26%201%20%26%200%20%26%201%20%26%200%20%5C%5C%200%20%26%200%20%26%201%20%26%200%20%26%201%20%26%200%20%26%200%20%26%200%20%26%201%20%5C%5C%200%20%26%200%20%26%200%20%26%201%20%26%200%20%26%200%20%26%200%20%26%201%20%26%200%20%5C%5C%200%20%26%200%20%26%200%20%26%200%20%26%201%20%26%200%20%26%201%20%26%200%20%26%201%20%5C%5C%200%20%26%200%20%26%200%20%26%200%20%26%200%20%26%201%20%26%200%20%26%201%20%26%200%5C%5C%20%5Cend%7Bbmatrix%7D;" vertex="1" parent="1">
                    <mxGeometry x="-70" y="260" width="520" height="477" as="geometry"/>
                </mxCell>
                <mxCell id="32" value="" style="shape=image;verticalLabelPosition=bottom;labelBackgroundColor=#ffffff;verticalAlign=top;aspect=fixed;imageAspect=0;image=https://latex.codecogs.com/png.latex?%5Cdpi%7B300%7D%20%5Cbegin%7Bbmatrix%7D%200%20%26%201%20%26%200%20%26%201%20%26%200%20%26%200%20%26%200%20%26%200%20%26%200%5C%5C%201%20%26%200%20%26%201%20%26%200%20%26%201%20%26%200%20%26%200%20%26%200%20%26%200%20%5C%5C%200%20%26%201%20%26%200%20%26%200%20%26%200%20%26%201%20%26%200%20%26%200%20%26%200%20%5C%5C%201%20%26%200%20%26%200%20%26%200%20%26%201%20%26%200%20%26%201%20%26%200%20%26%200%20%5C%5C%200%20%26%201%20%26%200%20%26%201%20%26%200%20%26%201%20%26%200%20%26%201%20%26%200%20%5C%5C%200%20%26%200%20%26%201%20%26%200%20%26%201%20%26%200%20%26%200%20%26%200%20%26%201%20%5C%5C%200%20%26%200%20%26%200%20%26%201%20%26%200%20%26%200%20%26%200%20%26%201%20%26%200%20%5C%5C%200%20%26%200%20%26%200%20%26%200%20%26%201%20%26%200%20%26%201%20%26%200%20%26%201%20%5C%5C%200%20%26%200%20%26%200%20%26%200%20%26%200%20%26%201%20%26%200%20%26%201%20%26%200%5C%5C%20%5Cend%7Bbmatrix%7D;" vertex="1" parent="1">
                    <mxGeometry x="-70" y="800" width="520" height="477" as="geometry"/>
                </mxCell>
                <mxCell id="33" value="" style="rounded=0;whiteSpace=wrap;html=1;fillColor=none;strokeColor=#FF0000;strokeWidth=6;" vertex="1" parent="1">
                    <mxGeometry x="170" y="790" width="40" height="500" as="geometry"/>
                </mxCell>
                <mxCell id="34" value="" style="rounded=0;whiteSpace=wrap;html=1;fillColor=none;strokeColor=#FF0000;strokeWidth=6;" vertex="1" parent="1">
                    <mxGeometry x="-70" y="1010" width="510" height="50" as="geometry"/>
                </mxCell>
            </root>
        </mxGraphModel>
    </diagram>
</mxfile>